# xmcd CD database file
# Copyright (C) 1995-1998 Ti Kan
#
# Track frame offsets:
#	150
#	20972
#	37890
#	54417
#	68107
#	90842
#	107442
#	126475
#	148360
#	161422
#
# Disc length: 2407 seconds
#
# Revision: 1
# Processed by: cddbd v1.4PL0 Copyright (c) Steve Scherf et al.
# Submitted via: CDex 1.30Release
#
DISCID=8409650a
DTITLE=Mojo Hands - Rockin' the Roots
DYEAR=1900
DGENRE=Blues
TTITLE0=Everybody Needs Rock 'n' Roll
TTITLE1=A Girl Like You
TTITLE2=If You Ain't Got The Stuff
TTITLE3=Ain't That A Cruel World
TTITLE4=I'm Almost Ready
TTITLE5=Hold On
TTITLE6=I Can't Stand It
TTITLE7=Enough Is Enough
TTITLE8=All Kinds Of Girls
TTITLE9=Something's Wrong
EXTD=ID3G:   0
EXTT0=
EXTT1=
EXTT2=
EXTT3=
EXTT4=
EXTT5=
EXTT6=
EXTT7=
EXTT8=
EXTT9=
PLAYORDER=
